solid OpenSCAD_Model
  facet normal 0.996195 0.0871544 0
    outer loop
      vertex 2.5 0 5.4
      vertex 2.46202 0.43412 0
      vertex 2.46202 0.43412 5.4
    endloop
  endfacet
  facet normal 0.996195 0.0871544 0
    outer loop
      vertex 2.46202 0.43412 0
      vertex 2.5 0 5.4
      vertex 2.5 0 0
    endloop
  endfacet
  facet normal -0.996195 0.0871544 0
    outer loop
      vertex -2.5 0 0
      vertex -2.46202 0.43412 5.4
      vertex -2.46202 0.43412 0
    endloop
  endfacet
  facet normal -0.996195 0.0871544 0
    outer loop
      vertex -2.46202 0.43412 5.4
      vertex -2.5 0 0
      vertex -2.5 0 5.4
    endloop
  endfacet
  facet normal -0.819155 -0.573572 0
    outer loop
      vertex -1.91511 -1.60697 0
      vertex -2.16506 -1.25 5.4
      vertex -2.16506 -1.25 0
    endloop
  endfacet
  facet normal -0.819155 -0.573572 0
    outer loop
      vertex -2.16506 -1.25 5.4
      vertex -1.91511 -1.60697 0
      vertex -1.91511 -1.60697 5.4
    endloop
  endfacet
  facet normal 0.819155 -0.573572 0
    outer loop
      vertex 1.91511 -1.60697 5.4
      vertex 2.16506 -1.25 0
      vertex 2.16506 -1.25 5.4
    endloop
  endfacet
  facet normal 0.819155 -0.573572 0
    outer loop
      vertex 2.16506 -1.25 0
      vertex 1.91511 -1.60697 5.4
      vertex 1.91511 -1.60697 0
    endloop
  endfacet
  facet normal 0 0 -1
    outer loop
      vertex 2.46202 -0.43412 0
      vertex 2.46202 0.43412 0
      vertex 2.5 0 0
    endloop
  endfacet
  facet normal 0 0 -1
    outer loop
      vertex 2.34923 -0.85505 0
      vertex 2.46202 0.43412 0
      vertex 2.46202 -0.43412 0
    endloop
  endfacet
  facet normal 0 0 -1
    outer loop
      vertex 2.34923 -0.85505 0
      vertex 2.34923 0.85505 0
      vertex 2.46202 0.43412 0
    endloop
  endfacet
  facet normal 0 0 -1
    outer loop
      vertex 2.16506 -1.25 0
      vertex 2.34923 0.85505 0
      vertex 2.34923 -0.85505 0
    endloop
  endfacet
  facet normal 0 0 -1
    outer loop
      vertex 1.99001 1.5 0
      vertex 2.34923 0.85505 0
      vertex 2.16506 -1.25 0
    endloop
  endfacet
  facet normal 0 0 -1
    outer loop
      vertex 2.34923 0.85505 0
      vertex 1.99001 1.5 0
      vertex 2.16506 1.25 0
    endloop
  endfacet
  facet normal 0 0 -1
    outer loop
      vertex 1.91511 -1.60697 0
      vertex 1.99001 1.5 0
      vertex 2.16506 -1.25 0
    endloop
  endfacet
  facet normal 0 0 -1
    outer loop
      vertex 1.60697 -1.91511 0
      vertex 1.99001 1.5 0
      vertex 1.91511 -1.60697 0
    endloop
  endfacet
  facet normal 0 0 -1
    outer loop
      vertex 1.25 -2.16506 0
      vertex 1.99001 1.5 0
      vertex 1.60697 -1.91511 0
    endloop
  endfacet
  facet normal 0 0 -1
    outer loop
      vertex 0.85505 -2.34923 0
      vertex 1.99001 1.5 0
      vertex 1.25 -2.16506 0
    endloop
  endfacet
  facet normal 0 0 -1
    outer loop
      vertex 0.43412 -2.46202 0
      vertex 1.99001 1.5 0
      vertex 0.85505 -2.34923 0
    endloop
  endfacet
  facet normal 0 0 -1
    outer loop
      vertex 0 -2.5 0
      vertex 1.99001 1.5 0
      vertex 0.43412 -2.46202 0
    endloop
  endfacet
  facet normal 0 0 -1
    outer loop
      vertex -0.43412 -2.46202 0
      vertex 1.99001 1.5 0
      vertex 0 -2.5 0
    endloop
  endfacet
  facet normal 0 0 -1
    outer loop
      vertex -0.85505 -2.34923 0
      vertex 1.99001 1.5 0
      vertex -0.43412 -2.46202 0
    endloop
  endfacet
  facet normal 0 0 -1
    outer loop
      vertex -1.25 -2.16506 0
      vertex 1.99001 1.5 0
      vertex -0.85505 -2.34923 0
    endloop
  endfacet
  facet normal 0 0 -1
    outer loop
      vertex -1.60697 -1.91511 0
      vertex 1.99001 1.5 0
      vertex -1.25 -2.16506 0
    endloop
  endfacet
  facet normal 0 0 -1
    outer loop
      vertex -1.91511 -1.60697 0
      vertex 1.99001 1.5 0
      vertex -1.60697 -1.91511 0
    endloop
  endfacet
  facet normal 0 0 -1
    outer loop
      vertex -1.91511 -1.60697 0
      vertex -1.99001 1.5 0
      vertex 1.99001 1.5 0
    endloop
  endfacet
  facet normal 0 0 -1
    outer loop
      vertex -2.16506 -1.25 0
      vertex -1.99001 1.5 0
      vertex -1.91511 -1.60697 0
    endloop
  endfacet
  facet normal 0 0 -1
    outer loop
      vertex -2.34923 -0.85505 0
      vertex -1.99001 1.5 0
      vertex -2.16506 -1.25 0
    endloop
  endfacet
  facet normal 0 0 -1
    outer loop
      vertex -2.34923 0.85505 0
      vertex -1.99001 1.5 0
      vertex -2.34923 -0.85505 0
    endloop
  endfacet
  facet normal 0 0 -1
    outer loop
      vertex -1.99001 1.5 0
      vertex -2.34923 0.85505 0
      vertex -2.16506 1.25 0
    endloop
  endfacet
  facet normal 0 0 -1
    outer loop
      vertex -2.46202 -0.43412 0
      vertex -2.34923 0.85505 0
      vertex -2.34923 -0.85505 0
    endloop
  endfacet
  facet normal 0 0 -1
    outer loop
      vertex -2.46202 -0.43412 0
      vertex -2.46202 0.43412 0
      vertex -2.34923 0.85505 0
    endloop
  endfacet
  facet normal 0 -0 -1
    outer loop
      vertex -2.46202 0.43412 0
      vertex -2.46202 -0.43412 0
      vertex -2.5 0 0
    endloop
  endfacet
  facet normal 0.906306 0.422622 0
    outer loop
      vertex 2.34923 0.85505 5.4
      vertex 2.16506 1.25 0
      vertex 2.16506 1.25 5.4
    endloop
  endfacet
  facet normal 0.906306 0.422622 0
    outer loop
      vertex 2.16506 1.25 0
      vertex 2.34923 0.85505 5.4
      vertex 2.34923 0.85505 0
    endloop
  endfacet
  facet normal 0.965925 0.258824 0
    outer loop
      vertex 2.46202 0.43412 5.4
      vertex 2.34923 0.85505 0
      vertex 2.34923 0.85505 5.4
    endloop
  endfacet
  facet normal 0.965925 0.258824 0
    outer loop
      vertex 2.34923 0.85505 0
      vertex 2.46202 0.43412 5.4
      vertex 2.46202 0.43412 0
    endloop
  endfacet
  facet normal 0.819155 0.573572 0
    outer loop
      vertex 2.16506 1.25 5.4
      vertex 1.99001 1.5 0
      vertex 1.99001 1.5 5.4
    endloop
  endfacet
  facet normal 0.819155 0.573572 0
    outer loop
      vertex 1.99001 1.5 0
      vertex 2.16506 1.25 5.4
      vertex 2.16506 1.25 0
    endloop
  endfacet
  facet normal -0.819155 0.573572 0
    outer loop
      vertex -2.16506 1.25 0
      vertex -1.99001 1.5 5.4
      vertex -1.99001 1.5 0
    endloop
  endfacet
  facet normal -0.819155 0.573572 0
    outer loop
      vertex -1.99001 1.5 5.4
      vertex -2.16506 1.25 0
      vertex -2.16506 1.25 5.4
    endloop
  endfacet
  facet normal 0 0 1
    outer loop
      vertex 2.46202 0.43412 5.4
      vertex 2.46202 -0.43412 5.4
      vertex 2.5 0 5.4
    endloop
  endfacet
  facet normal 0 0 1
    outer loop
      vertex 2.34923 0.85505 5.4
      vertex 2.46202 -0.43412 5.4
      vertex 2.46202 0.43412 5.4
    endloop
  endfacet
  facet normal 0 0 1
    outer loop
      vertex 2.34923 0.85505 5.4
      vertex 2.34923 -0.85505 5.4
      vertex 2.46202 -0.43412 5.4
    endloop
  endfacet
  facet normal 0 0 1
    outer loop
      vertex 1.99001 1.5 5.4
      vertex 2.34923 0.85505 5.4
      vertex 2.16506 1.25 5.4
    endloop
  endfacet
  facet normal 0 0 1
    outer loop
      vertex 2.34923 0.85505 5.4
      vertex 1.99001 1.5 5.4
      vertex 2.34923 -0.85505 5.4
    endloop
  endfacet
  facet normal 0 0 1
    outer loop
      vertex 2.34923 -0.85505 5.4
      vertex 1.99001 1.5 5.4
      vertex 2.16506 -1.25 5.4
    endloop
  endfacet
  facet normal 0 0 1
    outer loop
      vertex 1.99001 1.5 5.4
      vertex 1.91511 -1.60697 5.4
      vertex 2.16506 -1.25 5.4
    endloop
  endfacet
  facet normal 0 0 1
    outer loop
      vertex 1.99001 1.5 5.4
      vertex 1.60697 -1.91511 5.4
      vertex 1.91511 -1.60697 5.4
    endloop
  endfacet
  facet normal 0 0 1
    outer loop
      vertex 1.99001 1.5 5.4
      vertex 1.25 -2.16506 5.4
      vertex 1.60697 -1.91511 5.4
    endloop
  endfacet
  facet normal 0 0 1
    outer loop
      vertex 1.99001 1.5 5.4
      vertex 0.85505 -2.34923 5.4
      vertex 1.25 -2.16506 5.4
    endloop
  endfacet
  facet normal 0 0 1
    outer loop
      vertex 1.99001 1.5 5.4
      vertex 0.43412 -2.46202 5.4
      vertex 0.85505 -2.34923 5.4
    endloop
  endfacet
  facet normal 0 0 1
    outer loop
      vertex 1.99001 1.5 5.4
      vertex 0 -2.5 5.4
      vertex 0.43412 -2.46202 5.4
    endloop
  endfacet
  facet normal 0 0 1
    outer loop
      vertex 1.99001 1.5 5.4
      vertex -0.43412 -2.46202 5.4
      vertex 0 -2.5 5.4
    endloop
  endfacet
  facet normal 0 0 1
    outer loop
      vertex 1.99001 1.5 5.4
      vertex -0.85505 -2.34923 5.4
      vertex -0.43412 -2.46202 5.4
    endloop
  endfacet
  facet normal 0 0 1
    outer loop
      vertex 1.99001 1.5 5.4
      vertex -1.25 -2.16506 5.4
      vertex -0.85505 -2.34923 5.4
    endloop
  endfacet
  facet normal 0 0 1
    outer loop
      vertex 1.99001 1.5 5.4
      vertex -1.60697 -1.91511 5.4
      vertex -1.25 -2.16506 5.4
    endloop
  endfacet
  facet normal 0 0 1
    outer loop
      vertex 1.99001 1.5 5.4
      vertex -1.91511 -1.60697 5.4
      vertex -1.60697 -1.91511 5.4
    endloop
  endfacet
  facet normal -0 0 1
    outer loop
      vertex -1.99001 1.5 5.4
      vertex -1.91511 -1.60697 5.4
      vertex 1.99001 1.5 5.4
    endloop
  endfacet
  facet normal 0 0 1
    outer loop
      vertex -2.34923 0.85505 5.4
      vertex -1.99001 1.5 5.4
      vertex -2.16506 1.25 5.4
    endloop
  endfacet
  facet normal 0 0 1
    outer loop
      vertex -1.99001 1.5 5.4
      vertex -2.16506 -1.25 5.4
      vertex -1.91511 -1.60697 5.4
    endloop
  endfacet
  facet normal 0 0 1
    outer loop
      vertex -1.99001 1.5 5.4
      vertex -2.34923 0.85505 5.4
      vertex -2.16506 -1.25 5.4
    endloop
  endfacet
  facet normal 0 0 1
    outer loop
      vertex -2.34923 0.85505 5.4
      vertex -2.34923 -0.85505 5.4
      vertex -2.16506 -1.25 5.4
    endloop
  endfacet
  facet normal -0 0 1
    outer loop
      vertex -2.46202 0.43412 5.4
      vertex -2.34923 -0.85505 5.4
      vertex -2.34923 0.85505 5.4
    endloop
  endfacet
  facet normal 0 0 1
    outer loop
      vertex -2.46202 0.43412 5.4
      vertex -2.46202 -0.43412 5.4
      vertex -2.34923 -0.85505 5.4
    endloop
  endfacet
  facet normal 0 -0 1
    outer loop
      vertex -2.46202 -0.43412 5.4
      vertex -2.46202 0.43412 5.4
      vertex -2.5 0 5.4
    endloop
  endfacet
  facet normal 0.0871544 -0.996195 0
    outer loop
      vertex 0 -2.5 0
      vertex 0.43412 -2.46202 5.4
      vertex 0 -2.5 5.4
    endloop
  endfacet
  facet normal 0.0871544 -0.996195 0
    outer loop
      vertex 0.43412 -2.46202 5.4
      vertex 0 -2.5 0
      vertex 0.43412 -2.46202 0
    endloop
  endfacet
  facet normal 0.573572 -0.819155 0
    outer loop
      vertex 1.25 -2.16506 0
      vertex 1.60697 -1.91511 5.4
      vertex 1.25 -2.16506 5.4
    endloop
  endfacet
  facet normal 0.573572 -0.819155 0
    outer loop
      vertex 1.60697 -1.91511 5.4
      vertex 1.25 -2.16506 0
      vertex 1.60697 -1.91511 0
    endloop
  endfacet
  facet normal -0.707107 -0.707107 0
    outer loop
      vertex -1.60697 -1.91511 0
      vertex -1.91511 -1.60697 5.4
      vertex -1.91511 -1.60697 0
    endloop
  endfacet
  facet normal -0.707107 -0.707107 0
    outer loop
      vertex -1.91511 -1.60697 5.4
      vertex -1.60697 -1.91511 0
      vertex -1.60697 -1.91511 5.4
    endloop
  endfacet
  facet normal -0.906306 -0.422622 0
    outer loop
      vertex -2.16506 -1.25 0
      vertex -2.34923 -0.85505 5.4
      vertex -2.34923 -0.85505 0
    endloop
  endfacet
  facet normal -0.906306 -0.422622 0
    outer loop
      vertex -2.34923 -0.85505 5.4
      vertex -2.16506 -1.25 0
      vertex -2.16506 -1.25 5.4
    endloop
  endfacet
  facet normal -0.996195 -0.0871544 0
    outer loop
      vertex -2.46202 -0.43412 0
      vertex -2.5 0 5.4
      vertex -2.5 0 0
    endloop
  endfacet
  facet normal -0.996195 -0.0871544 0
    outer loop
      vertex -2.5 0 5.4
      vertex -2.46202 -0.43412 0
      vertex -2.46202 -0.43412 5.4
    endloop
  endfacet
  facet normal -0.906306 0.422622 0
    outer loop
      vertex -2.34923 0.85505 0
      vertex -2.16506 1.25 5.4
      vertex -2.16506 1.25 0
    endloop
  endfacet
  facet normal -0.906306 0.422622 0
    outer loop
      vertex -2.16506 1.25 5.4
      vertex -2.34923 0.85505 0
      vertex -2.34923 0.85505 5.4
    endloop
  endfacet
  facet normal -0.965925 0.258824 0
    outer loop
      vertex -2.46202 0.43412 0
      vertex -2.34923 0.85505 5.4
      vertex -2.34923 0.85505 0
    endloop
  endfacet
  facet normal -0.965925 0.258824 0
    outer loop
      vertex -2.34923 0.85505 5.4
      vertex -2.46202 0.43412 0
      vertex -2.46202 0.43412 5.4
    endloop
  endfacet
  facet normal 0.258824 -0.965925 0
    outer loop
      vertex 0.43412 -2.46202 0
      vertex 0.85505 -2.34923 5.4
      vertex 0.43412 -2.46202 5.4
    endloop
  endfacet
  facet normal 0.258824 -0.965925 0
    outer loop
      vertex 0.85505 -2.34923 5.4
      vertex 0.43412 -2.46202 0
      vertex 0.85505 -2.34923 0
    endloop
  endfacet
  facet normal 0.707107 -0.707107 0
    outer loop
      vertex 1.60697 -1.91511 5.4
      vertex 1.91511 -1.60697 0
      vertex 1.91511 -1.60697 5.4
    endloop
  endfacet
  facet normal 0.707107 -0.707107 0
    outer loop
      vertex 1.91511 -1.60697 0
      vertex 1.60697 -1.91511 5.4
      vertex 1.60697 -1.91511 0
    endloop
  endfacet
  facet normal 0.996195 -0.0871544 0
    outer loop
      vertex 2.46202 -0.43412 5.4
      vertex 2.5 0 0
      vertex 2.5 0 5.4
    endloop
  endfacet
  facet normal 0.996195 -0.0871544 0
    outer loop
      vertex 2.5 0 0
      vertex 2.46202 -0.43412 5.4
      vertex 2.46202 -0.43412 0
    endloop
  endfacet
  facet normal -0.573572 -0.819155 0
    outer loop
      vertex -1.60697 -1.91511 0
      vertex -1.25 -2.16506 5.4
      vertex -1.60697 -1.91511 5.4
    endloop
  endfacet
  facet normal -0.573572 -0.819155 -0
    outer loop
      vertex -1.25 -2.16506 5.4
      vertex -1.60697 -1.91511 0
      vertex -1.25 -2.16506 0
    endloop
  endfacet
  facet normal -0.422622 -0.906306 0
    outer loop
      vertex -1.25 -2.16506 0
      vertex -0.85505 -2.34923 5.4
      vertex -1.25 -2.16506 5.4
    endloop
  endfacet
  facet normal -0.422622 -0.906306 -0
    outer loop
      vertex -0.85505 -2.34923 5.4
      vertex -1.25 -2.16506 0
      vertex -0.85505 -2.34923 0
    endloop
  endfacet
  facet normal -0.0871544 -0.996195 0
    outer loop
      vertex -0.43412 -2.46202 0
      vertex 0 -2.5 5.4
      vertex -0.43412 -2.46202 5.4
    endloop
  endfacet
  facet normal -0.0871544 -0.996195 -0
    outer loop
      vertex 0 -2.5 5.4
      vertex -0.43412 -2.46202 0
      vertex 0 -2.5 0
    endloop
  endfacet
  facet normal -0.965925 -0.258824 0
    outer loop
      vertex -2.34923 -0.85505 0
      vertex -2.46202 -0.43412 5.4
      vertex -2.46202 -0.43412 0
    endloop
  endfacet
  facet normal -0.965925 -0.258824 0
    outer loop
      vertex -2.46202 -0.43412 5.4
      vertex -2.34923 -0.85505 0
      vertex -2.34923 -0.85505 5.4
    endloop
  endfacet
  facet normal 0.422622 -0.906306 0
    outer loop
      vertex 0.85505 -2.34923 0
      vertex 1.25 -2.16506 5.4
      vertex 0.85505 -2.34923 5.4
    endloop
  endfacet
  facet normal 0.422622 -0.906306 0
    outer loop
      vertex 1.25 -2.16506 5.4
      vertex 0.85505 -2.34923 0
      vertex 1.25 -2.16506 0
    endloop
  endfacet
  facet normal 0.906306 -0.422622 0
    outer loop
      vertex 2.16506 -1.25 5.4
      vertex 2.34923 -0.85505 0
      vertex 2.34923 -0.85505 5.4
    endloop
  endfacet
  facet normal 0.906306 -0.422622 0
    outer loop
      vertex 2.34923 -0.85505 0
      vertex 2.16506 -1.25 5.4
      vertex 2.16506 -1.25 0
    endloop
  endfacet
  facet normal -0.258824 -0.965925 0
    outer loop
      vertex -0.85505 -2.34923 0
      vertex -0.43412 -2.46202 5.4
      vertex -0.85505 -2.34923 5.4
    endloop
  endfacet
  facet normal -0.258824 -0.965925 -0
    outer loop
      vertex -0.43412 -2.46202 5.4
      vertex -0.85505 -2.34923 0
      vertex -0.43412 -2.46202 0
    endloop
  endfacet
  facet normal 0.965925 -0.258824 0
    outer loop
      vertex 2.34923 -0.85505 5.4
      vertex 2.46202 -0.43412 0
      vertex 2.46202 -0.43412 5.4
    endloop
  endfacet
  facet normal 0.965925 -0.258824 0
    outer loop
      vertex 2.46202 -0.43412 0
      vertex 2.34923 -0.85505 5.4
      vertex 2.34923 -0.85505 0
    endloop
  endfacet
  facet normal 0 1 -0
    outer loop
      vertex 1.99001 1.5 0
      vertex -1.99001 1.5 5.4
      vertex 1.99001 1.5 5.4
    endloop
  endfacet
  facet normal 0 1 0
    outer loop
      vertex -1.99001 1.5 5.4
      vertex 1.99001 1.5 0
      vertex -1.99001 1.5 0
    endloop
  endfacet
endsolid OpenSCAD_Model
